# xmcd
#
# Track frame offsets:
#	150
#	27472
#	43862
#	66407
#	84579
#	102830
#	127179
#	143822
#	162840
#	181340
#
# Disc length: 2733 seconds
#
# Revision: 1
# Processed by: cddbd v1.5.1PL0 Copyright (c) Steve Scherf et al.
# Submitted via: audiograbber 1.83.01
#
DISCID=8e0aab0a
DTITLE=Gülden Karaböcek - Sen Bana Yetersin
DYEAR=1900
DGENRE=Arabesque
TTITLE0=Kahirla Yandigim
TTITLE1=Tek Sirdasim
TTITLE2=Sen Bana Yetersin
TTITLE3=Kader Gibi
TTITLE4=Yarali Gönlüm
TTITLE5=Dilek Tasi
TTITLE6=Sürünüyorum
TTITLE7=Yarini Olmayan Günlere Kaldim
TTITLE8=Eger Agliyorsam
TTITLE9=Senden Baskasi
EXTD=
EXTT0=
EXTT1=
EXTT2=
EXTT3=
EXTT4=
EXTT5=
EXTT6=
EXTT7=
EXTT8=
EXTT9=
PLAYORDER=
